<svg xmlns="http://www.w3.org/2000/svg" width="512px" height="512px" version="1.0" viewBox="0 0 512 512">
  <g id="pin" transform="translate(256, 256) scale(1.4, 1.4)">
    <path id="outline" fill="#F44336" stroke="#F44336" d="M-12-175.4c-8 1-20 3.8-26.5 6.1-47.9 17.1-78 63.3-72.7 111.5 2.8 24.5 12.3 45.2 37 80.3 17.8 25.2 32.5 47.5 38.9 59C-20.8 107.3-12 132.6-8 159.8c1.9 13.3 3.3 16.2 8 16.2s6.1-2.9 8-16.2c4-27.2 12.8-52.5 27.3-78.3 6.4-11.5 21.1-33.8 38.9-59 12.2-17.3 21.8-33 26.4-43.1 16.6-36.6 14.6-73.3-5.9-104.7-15.8-24.3-40.6-41.3-69.7-47.8-8.3-1.9-29.8-3.2-37-2.3z"/>
    <g transform="translate(-8, -65), scale(6, 6)">
      <path id="share" fill="#FFFFFF" stroke="#FFFFFF" d="M6 4.08c-.76 0-1.44.3-1.96.77L-3.09.7C-3.04.47-3 .24-3 0s-.04-.47-.09-.7l7.05-4.11C4.5-4.31 5.21-4 6-4c1.66 0 3-1.34 3-3s-1.34-3-3-3-3 1.34-3 3c0 .24.04.47.09.7l-7.05 4.11C-4.5-2.69-5.21-3-6-3c-1.66 0-3 1.34-3 3s1.34 3 3 3c.79 0 1.5-.31 2.04-.81l7.12 4.16c-.05.21-.08.43-.08.65 0 1.61 1.31 2.92 2.92 2.92 1.61 0 2.92-1.31 2.92-2.92S7.61 4.08 6 4.08z"/>
    </g>
  </g>

  <!-- Guides -->
  <!--
  <rect id="background" width="512" height="512" fill="none" stroke="#666666"/>
  <rect id="gridh" width="256" height="512" fill="none" stroke="#666666"/>
  <rect id="gridv" width="512" height="256" fill="none" stroke="#666666"/>
  -->
</svg>
